<svg xmlns="http://www.w3.org/2000/svg" width="714" height="722" overflow="hidden"><defs><clipPath id="a"><path d="M283-1h714v722H283z"/></clipPath></defs><g fill-rule="evenodd" clip-path="url(#a)" transform="translate(-283 1)"><path fill="#0F1965" d="M821.301 719.998c-28.328 0-48.912-19.531-53.792-26.325-.743-.849-1.485-2.123-2.334-3.503-3.82 9.66-11.777 17.62-22.493 21.124-3.608 1.167-7.321 1.804-11.141 1.804-13.687 0-25.994-7.748-32.042-19.637-5.623 10.827-16.551 18.576-29.496 19.425-.954.106-1.803.106-2.652.106-10.822 0-20.689-4.883-27.374-12.631-6.578 7.748-16.445 12.631-27.267 12.631-.955 0-1.804 0-2.653-.106-12.944-.85-23.872-8.598-29.495-19.425-6.154 11.889-18.356 19.637-32.042 19.637-3.82 0-7.64-.637-11.247-1.804-9.124-2.972-16.658-9.341-21.008-17.94-.53-1.06-.954-2.122-1.379-3.184-.955 1.487-1.697 2.654-2.334 3.503-4.987 6.794-25.464 26.325-53.793 26.325-13.474 0-26.418-4.458-38.62-13.269-23.554-17.196-28.01-39.168-27.586-54.453.531-18.045 7.746-32.375 11.459-37.471.743-1.167 1.91-2.547 3.501-4.245a36.607 36.607 0 0 1-26.737-14.543c-5.73-7.748-8.063-17.302-6.684-26.855 1.167-7.43 4.35-14.118 9.443-19.425-11.14-2.123-21.008-9.447-25.994-19.85-7.215-14.86-3.183-32.375 8.594-42.883-15.173-1.593-27.692-12.632-31.194-27.917-2.122-9.447-.424-19.107 4.775-27.28a36.941 36.941 0 0 1 6.366-7.643c-17.825-1.911-31.936-16.984-32.36-35.241-.107-9.659 3.5-18.788 10.185-25.794 1.273-1.38 2.653-2.547 4.138-3.715-6.048-2.017-20.371-9.553-31.193-24.308-9.231-12.419-18.25-33.33-8.913-62.202 9.868-30.359 34.801-48.51 66.525-48.51 5.729 0 11.14.637 15.278 1.805-4.456-11.464-3.077-24.945 4.987-35.348 6.896-9.022 17.294-14.117 28.647-14.117 5.835 0 11.564 1.38 16.657 4.033-1.591-11.676 2.653-23.883 12.202-32.162 6.578-5.626 14.96-8.811 23.554-8.811 5.623 0 11.034 1.274 15.915 3.716-2.016-14.543 4.88-29.403 18.567-36.834 5.199-2.866 11.14-4.352 17.188-4.352 5.517 0 10.822 1.274 15.597 3.503-.955-7.643.424-15.391 4.244-22.185 4.668-8.492 12.413-14.648 21.644-17.302 3.289-.849 6.578-1.38 9.973-1.38 6.048 0 11.883 1.592 16.976 4.352-.106-1.804-.212-3.396-.212-4.458 0-6.263 2.547-22.079 12.096-36.833 8.275-12.844 24.084-28.023 52.201-28.023 28.116 0 43.925 15.179 52.2 28.023 9.655 14.754 12.202 30.57 12.202 36.833 0 1.062-.106 2.654-.318 4.458 5.198-2.76 10.928-4.352 17.082-4.352 3.289 0 6.684.531 9.973 1.38 9.231 2.654 16.87 8.81 21.644 17.302 3.714 6.794 5.199 14.542 4.138 22.185 4.881-2.229 10.186-3.503 15.703-3.503a36.26 36.26 0 0 1 17.188 4.352c13.581 7.431 20.583 22.291 18.567 36.834a35.32 35.32 0 0 1 15.809-3.716c8.7 0 16.976 3.185 23.554 8.811 9.655 8.279 13.793 20.486 12.308 32.162 5.093-2.653 10.716-4.033 16.657-4.033 11.247 0 21.751 5.095 28.647 14.117 5.836 7.643 8.382 17.09 7.215 26.644a38.841 38.841 0 0 1-2.228 8.704c4.138-1.168 9.549-1.805 15.172-1.805 31.83 0 56.657 18.151 66.525 48.51 9.442 28.872.317 49.783-8.807 62.202-10.928 14.755-25.251 22.291-31.193 24.308h-.106c1.485 1.168 2.971 2.335 4.244 3.715 6.684 7.006 10.292 16.135 10.079 25.794-.318 18.257-14.535 33.33-32.36 35.241 2.546 2.229 4.668 4.777 6.472 7.643 5.199 8.173 6.791 17.833 4.669 27.28-3.396 15.285-15.915 26.324-31.194 27.917 11.883 10.508 15.915 28.023 8.701 42.883-5.093 10.403-14.854 17.727-25.995 19.85 4.987 5.307 8.276 11.995 9.443 19.425 1.379 9.553-.955 19.107-6.79 26.855-6.26 8.492-16.127 13.8-26.631 14.543 1.485 1.698 2.652 3.078 3.501 4.245 3.713 5.096 10.822 19.426 11.353 37.47.53 15.286-3.926 37.259-27.586 54.454-12.096 8.81-25.04 13.269-38.514 13.269"/><path fill="#FFD84B" d="M636.867 598.722c-1.913 1.272-3.932 2.438-6.164 3.286-3.719 1.378-7.545 2.12-11.478 2.12-7.332 0-14.24-2.544-19.767-6.891l-14.028 73.36a25.884 25.884 0 0 0-.638 4.134c-1.062 13.994 11.797 26.291 25.931 27.245 14.135 1.06 24.444-9.329 25.4-23.322a26.916 26.916 0 0 0 0-4.135Zm57.07 72.193-13.391-73.678c-5.633 4.347-12.54 6.891-19.767 6.891-3.932 0-7.864-.742-11.478-2.12-2.232-.848-4.251-2.014-6.27-3.286v75.48c-.106 1.377-.213 2.756-.106 4.134 1.063 14.1 12.221 24.7 26.356 23.64 14.028-.954 26.356-12.933 25.293-27.033a24.575 24.575 0 0 0-.637-4.028Zm60.47-6.043-29.757-69.967c-5.845 5.725-13.816 9.223-22.318 9.223-3.932 0-7.864-.742-11.477-2.12a37.996 37.996 0 0 1-2.87-1.272l18.386 79.72c.212 1.272.531 2.65.956 3.922 4.358 13.464 18.811 20.778 32.308 16.432 13.39-4.347 20.723-18.764 16.366-32.121a20.535 20.535 0 0 0-1.594-3.817ZM589.15 602.008c-3.72 1.378-7.546 2.12-11.478 2.12-8.502 0-16.473-3.498-22.424-9.223l-29.757 69.967c-.531 1.166-1.169 2.439-1.594 3.817-4.357 13.357 2.976 27.774 16.473 32.12 13.496 4.347 27.95-2.967 32.307-16.43.425-1.273.638-2.651.85-3.923l18.492-79.72-2.869 1.272Zm-65.253 3.71c-9.352 0-18.279-2.862-25.931-8.375a44.324 44.324 0 0 1-17.96-40.39c-32.414 27.563-61.427 54.808-67.91 63.713-6.058 8.48-23.593 49.93 13.922 77.07 37.409 27.138 71.629-2.227 77.793-10.601 6.589-9.117 24.231-46.327 40.703-86.505a44.276 44.276 0 0 1-20.617 5.088Zm361.866-52.051c-1.063-.742-2.339-1.484-3.508-2.12l-65.89-40.284c.319 4.558-.319 9.329-2.019 13.781-3.188 8.269-9.671 14.736-17.642 18.022l55.476 48.977a37.93 37.93 0 0 0 3.082 2.756c11.371 8.375 27.419 6.043 35.814-5.3 8.502-11.343 6.058-27.351-5.313-35.832Zm-85.87 3.286c1.594 15.16-4.677 30.743-17.961 40.39-7.545 5.513-16.579 8.375-25.931 8.375a44.598 44.598 0 0 1-20.617-5.088c16.579 40.178 34.22 77.388 40.809 86.505 6.164 8.374 40.385 37.74 77.793 10.6 37.409-27.138 19.98-68.588 13.816-77.07-6.483-8.904-35.496-36.149-67.909-63.712Zm131.143-194.317c-1.382 0-2.764.106-4.039.317l-75.774 5.195c1.169 1.908 2.126 4.028 2.87 6.148 3.507 11.026.744 22.581-6.27 30.744l78.218 8.268c1.275.213 2.657.425 4.038.425 14.135.317 25.825-10.92 26.144-25.019.212-14.099-11.053-25.761-25.187-26.079Zm51.543-86.293c-14.985-46.009-60.152-42.723-70.035-39.542-10.203 3.392-43.785 21.944-78.962 43.994 17.004 2.438 31.457 14.312 36.877 31.061 5.845 17.916-.106 36.786-13.391 48.553 42.404-2.862 81.726-7.632 92.141-11.025 9.883-3.18 48.355-27.032 33.37-73.041Zm-66.741 149.793c-1.381-.318-2.763-.53-4.038-.53l-71.31-9.647c1.062 2.756 1.7 5.619 2.019 8.587.744 8.481-1.913 16.75-7.44 23.322-1.381 1.696-2.975 3.181-4.569 4.453l70.141 22.368c1.275.53 2.551.954 3.932 1.272 13.816 3.074 27.525-5.512 30.607-19.294 3.189-13.781-5.526-27.457-19.342-30.531ZM424.636 594.799c1.169-.848 2.126-1.802 3.082-2.756l55.582-48.977c-7.971-3.286-14.56-9.753-17.748-18.022-1.7-4.452-2.338-9.223-1.913-13.781l-65.89 40.284c-1.275.636-2.445 1.378-3.614 2.12-11.37 8.481-13.709 24.489-5.313 35.832 8.395 11.343 24.443 13.675 35.814 5.3Zm476.855-103.784c-1.275-.636-2.55-1.06-3.826-1.485l-68.972-26.184c.85 3.71 1.063 7.633.531 11.555-1.381 9.859-7.333 18.234-15.622 23.11l62.064 36.892c1.063.742 2.232 1.484 3.507 2.12 12.754 6.149 28.057.848 34.221-11.873 6.164-12.721.85-27.987-11.903-34.135ZM535.587 112.344l25.187 65.515a32.028 32.028 0 0 1 25.825-13.039c3.613 0 7.121.53 10.415 1.696.106-.318.106-.53.213-.848l-13.072-67.211c-.213-1.272-.425-2.651-.744-4.029-3.932-13.569-18.173-21.414-31.776-17.491-13.497 3.922-21.361 18.021-17.536 31.591.426 1.378.957 2.65 1.488 3.816Zm147.51 54.172c3.294-1.166 6.695-1.696 10.202-1.696 10.627 0 20.086 5.088 25.931 13.039l25.187-65.515c.531-1.166 1.063-2.438 1.382-3.816 3.932-13.57-3.933-27.669-17.536-31.591-13.603-3.923-27.737 3.922-31.67 17.491-.425 1.378-.637 2.757-.743 4.029l-13.072 66.893c.106.424.212.742.319 1.166Zm-5.208-12.51c9.246-40.39 15.941-78.024 15.941-88.731 0-10.389-9.883-54.277-53.881-54.277-43.998 0-53.775 43.888-53.775 54.277 0 10.707 6.695 48.447 15.941 88.837 7.652-12.827 21.787-21.52 37.94-21.52 16.048 0 30.076 8.587 37.834 21.414Zm46.867 36.15h.957c2.444 0 4.888.318 7.226.848 10.84 2.438 19.024 10.177 22.743 19.824l37.303-56.398c.85-1.06 1.594-2.226 2.338-3.498 6.695-12.403 2.125-27.881-10.415-34.559-12.434-6.785-27.95-2.121-34.646 10.283-.744 1.166-1.169 2.438-1.7 3.71l-24.656 56.822c.319.954.638 2.014.85 2.968Zm91.29 61.698c7.227 5.831 11.265 14.206 11.797 22.899l61.32-39.224a19.585 19.585 0 0 0 3.507-2.227c11.265-8.586 13.285-24.594 4.677-35.831-8.609-11.131-24.763-13.252-35.921-4.559-1.169.848-2.126 1.803-3.082 2.757l-54.519 50.037a34.077 34.077 0 0 1 12.221 6.148Zm-41.447-31.379c9.459 4.559 15.729 13.251 17.535 22.898l48.781-47.598c1.062-.848 2.019-1.803 2.975-2.863 9.246-10.707 7.971-26.82-2.763-36.043-10.734-9.223-26.887-7.951-36.133 2.756-.85 1.06-1.701 2.12-2.338 3.286l-39.216 54.49c3.932.318 7.652 1.378 11.159 3.074ZM400.831 537.023c1.169-.636 2.338-1.378 3.507-2.12l61.958-36.892c-8.183-4.876-14.134-13.251-15.516-23.11-.638-3.922-.319-7.845.531-11.555l-68.972 26.184c-1.275.425-2.657.849-3.826 1.485-12.753 6.148-18.067 21.414-11.903 34.135 6.164 12.721 21.468 18.022 34.221 11.873Zm21.999-176.614c-4.251-3.816-7.865-8.375-10.522-13.675-5.632-10.919-6.589-23.322-2.763-34.878 5.42-16.749 19.767-28.623 36.878-31.061-35.177-22.05-68.76-40.602-78.962-43.994-9.884-3.181-55.05-6.467-70.036 39.542-14.984 46.009 23.487 69.861 33.37 73.041 10.416 3.393 49.737 8.163 92.035 11.025Zm-68.866 52.9 78.112-8.269c-1.595-1.908-3.082-4.028-4.251-6.361-3.826-7.527-4.57-16.219-1.913-24.382.744-2.12 1.7-4.241 2.763-6.149l-75.668-5.194a26.156 26.156 0 0 0-4.144-.318c-14.135.318-25.4 11.979-25.081 26.079.212 14.099 11.902 25.336 26.037 25.018 1.488 0 2.763-.212 4.145-.424Zm33.37-180.007c1.063.849 2.232 1.591 3.4 2.227l61.428 39.224c.531-8.693 4.569-17.068 11.796-22.899 3.613-2.862 7.758-4.982 12.222-6.148l-54.626-50.037c-.85-.954-1.913-1.909-2.975-2.757-11.265-8.693-27.313-6.572-35.921 4.559a25.374 25.374 0 0 0 4.676 35.831Zm-12.01 242.659a24.336 24.336 0 0 0 3.933-1.272l70.248-22.368c-1.701-1.272-3.189-2.757-4.676-4.453-5.42-6.572-8.077-14.841-7.333-23.322.212-2.968.956-5.937 2.019-8.587l-71.31 9.647c-1.382 0-2.764.212-4.145.53-13.71 3.074-22.424 16.75-19.342 30.531 3.188 13.782 16.791 22.368 30.607 19.294ZM486.914 154.43l37.409 56.398c3.613-9.647 11.903-17.386 22.743-19.824 2.338-.53 4.782-.848 7.12-.848h1.063c.212-.954.531-2.014.85-2.968l-24.762-56.822a22.924 22.924 0 0 0-1.594-3.71c-6.801-12.404-22.318-17.068-34.752-10.283-12.434 6.678-17.004 22.156-10.308 34.559.637 1.272 1.487 2.438 2.231 3.498Zm-47.93 41.345 48.887 47.598c1.806-9.647 8.077-18.339 17.535-22.898 3.507-1.696 7.227-2.756 11.053-3.074l-39.109-54.49c-.744-1.166-1.488-2.226-2.445-3.286-9.246-10.707-25.399-11.979-36.133-2.756-10.734 9.223-11.903 25.336-2.657 36.043.85 1.06 1.913 2.015 2.869 2.863"/><path fill="#FFF" d="M497 299h119.166c11.518 0 21.127 6.32 23.35 14.722l.484 3.716.484-3.716c2.223-8.402 11.832-14.722 23.35-14.722H783v185.253H663.834c-13.163 0-23.834 8.256-23.834 18.439V503v-.308c0-10.183-10.671-18.439-23.834-18.439H497Z"/><path fill="#FFD84B" stroke="#0F1965" stroke-miterlimit="8" stroke-width="5.33333" d="M544.353 435.322v11.314h61.294v-11.313Zm-8.926-33.822c4.93 0 8.926 3.999 8.926 8.932v7.027h61.294v-7.027c0-4.933 3.997-8.932 8.927-8.932 4.929 0 8.926 3.999 8.926 8.932v45.136c0 4.933-3.997 8.932-8.927 8.932h.001l-.268-.054-.268.054H535.426h.001-.001c-4.929 0-8.926-3.999-8.926-8.932V426.39v.001-15.959c0-4.933 3.997-8.932 8.927-8.932ZM666.431 417.5c4.932 0 8.931 3.995 8.931 8.924v20.228h76.207c4.933 0 8.931 3.995 8.931 8.924 0 4.929-3.998 8.924-8.931 8.924h-85.138c-4.933 0-8.931-3.995-8.931-8.924v-29.152c0-4.929 3.999-8.924 8.931-8.924ZM538.393 361.024v14.533h24.214v-14.533Zm-8.946-42.524c4.941 0 8.946 4.017 8.946 8.971v15.61h24.214v-15.61c0-4.954 4.006-8.971 8.947-8.971 4.941 0 8.946 4.017 8.946 8.971v57.058c0 4.954-4.005 8.971-8.946 8.971h-42.108c-4.941 0-8.946-4.017-8.946-8.971v-57.058c0-4.954 4.006-8.971 8.947-8.971ZM614.661 318.5c4.882 0 8.839 4.017 8.839 8.971v57.058c0 4.955-3.958 8.971-8.839 8.971-4.882 0-8.84-4.017-8.84-8.971v-20.275h-6.482c-4.881 0-8.839-4.017-8.839-8.972v.001c0-4.955 3.958-8.972 8.839-8.972h6.482v-18.84c0-4.954 3.958-8.971 8.84-8.971Z"/><path fill="#FFD84B" stroke="#0F1965" stroke-miterlimit="8" stroke-width="5.33333" d="M657.484 383.5h70.032c4.962 0 8.984 4.065 8.984 9.079s-4.022 9.079-8.984 9.079h-25.949v18.763c0 5.014-4.023 9.079-8.985 9.079h.001c-4.962 0-8.985-4.065-8.985-9.079v-18.763h-26.114c-4.962 0-8.984-4.065-8.984-9.079s4.022-9.079 8.984-9.079Z"/><path fill="#FFD84B" stroke="#0F1965" stroke-miterlimit="8" stroke-width="5.33333" d="M751.524 318.5c4.957 0 8.976 4.012 8.976 8.961v101.078c0 4.949-4.019 8.961-8.976 8.961-4.957 0-8.976-4.012-8.976-8.961v-1.672l-18.072-.001c-4.957 0-8.976-4.011-8.976-8.96 0-4.949 4.019-8.961 8.976-8.961h18.072v-81.484c0-4.949 4.019-8.961 8.976-8.961ZM689.481 333.018c-10.537 0-19.078 5.472-19.078 12.222 0 6.75 8.541 12.222 19.078 12.222 10.537 0 19.079-5.472 19.079-12.222 0-6.75-8.542-12.222-19.079-12.222Zm.019-15.518c20.987 0 38 12.312 38 27.5s-17.013 27.5-38 27.5-38-12.312-38-27.5 17.013-27.5 38-27.5Z"/></g></svg>