<svg xmlns="http://www.w3.org/2000/svg" xml:space="preserve" id="레이어_1" x="0px" y="0px" style="enable-background:new 0 0 2048 2048" version="1.1" viewBox="0 0 2048 2048"><style>.st0{fill:#a4681d}.st2{fill:none}.st4{fill:#ffcb05}.st7,.st8{fill:#a4681d;stroke:#a4681d;stroke-miterlimit:10}.st8{fill:none;stroke-width:20;stroke-linecap:round}</style><g id="XMLID_1_"><path d="M1024 0c565.5 0 1024 458.5 1024 1024s-458.5 1024-1024 1024S0 1589.5 0 1024 458.5 0 1024 0z" class="st0"/><path d="M1024 13.6c558 0 1010.4 452.3 1010.4 1010.4S1582 2034.4 1024 2034.4 13.6 1582 13.6 1024 466 13.6 1024 13.6z" style="fill:#fff"/><path d="M1024 47.5c539.3 0 976.5 437.2 976.5 976.5s-437.2 976.5-976.5 976.5S47.5 1563.3 47.5 1024 484.7 47.5 1024 47.5z" class="st2"/><circle cx="1024" cy="1024" r="976.5" style="fill:none;stroke:#a4681d;stroke-width:27;stroke-miterlimit:10"/></g><g id="g4827" transform="translate(70.001 11.82)"><path id="path6" d="M1763.3 633.3c18.6-19.7 23.6-40.6 23.6-57.8 0-22.9-9.1-39.6-9.3-39.5-35.8 41.1-205.9 203.3-454.9 225.1v-23.2c0-1.4-.7-1.8-1.9-1.8h-267.6c-1.9-12.6-3.5-24.6-5-35.3v-.1c0-.2-.5-3-.5-3-3.7-26.8-6.9-50.1-12.1-63.9 11.7-8.3 21.6-20 28.5-33.9 6.5-12.9 10-27.1 9.9-39.9v-2.8l-2.3 1.4c-3.4 2.1-12.3 5.5-12.4 5.6-12.6 4.7-35.4 9.8-71.7 7.2-19.4-1.4-36.8-1.8-51.8-1.2-15.5.7-28 2.5-37.1 5.4-10 3.1-17.9 7.2-24.2 12.5-5.4 4.5-8.4 9-10.3 12.1-15.6-1-35.7.9-50.3 4.7-9.8 2.6-17 7.1-22 13.8-5 6.6-7.5 15.2-7.7 25.9v.1c0 6.4 1.4 17.1 5.3 28.3 5.1 14.5 13.1 26.4 23.7 35.4l2.2 1.8.4-2.8c.2-.7 2.8-17.4 27.7-18.1 2.3 0 6.5.1 8.4.1 5.6.2 9.6 1.6 11.6 3.9 1.8 2.2 2.3 6.1 1.4 11.5 0 .5-2.2 13.3-6.3 27h-.1v.1c-.1.2-.6 1.8-1.2 4.3H587.1c-1.2 0-1.9.4-1.9 1.8v23.2c-249-21.8-419-184-454.9-225.1-.2-.2-9.2 16.6-9.2 39.5 0 17.2 5 38 23.6 57.8 0 0 .1.1.2.3-7.5 18.4-17.6 68.3 32 110.1-.9 4.7-1.7 11.9-1.7 19.4 0 24.9 9.1 61.8 55 92.7 0 0 3.2 2.2 5.3 3.5-.7 9.7.5 81.8 103.8 107.3 10.2 29.7 38.5 67.3 108 72 19.6 31.8 47.7 48.1 86.1 47.7 9.1 14.2 27 25.7 48.3 30.9 14.1 3.3 28.4 3.6 42.3.9 4.4 3.5 12.6 8.3 23.3 12.4 0 0 .1 0 .2.1-12.4 9-18.5 20.1-22.6 32.9-6.8 20.7-6.8 40.4 15 68.8 7.3 10.2 11.5 18.8 13.7 28.8 2.2 9.8 2.7 21 2.7 37.1 0 10.1 2.1 19.6 6.1 28.2 4.1 8.5 10.1 15.9 17.5 21.2 4.3 3.1 9.1 5.6 14.3 7.3-3.2 4.4-5.6 9.3-7.3 14.4-2.8 8.6-3.4 18.1-1.6 27.4 1.7 9.4 5.6 18.2 11.6 26.5 9.4 13 15.7 22.4 19.6 31.5 4.1 9.5 5.8 18.8 5.8 31.4-.8 35.8 10.7 51.7 28.3 64.4 17.7 12.8 36.3 18.9 70.2 7 11.9-3.9 21.3-5.1 31.5-4.2 10 .9 20.8 4 36.1 9 9.6 3.2 19.3 4.1 28.7 2.9 9.4-1.3 18.2-4.7 25.6-10 4.3-3.1 8.1-7 11.4-11.4 3.3 4.4 7.1 8.3 11.4 11.4 7.3 5.3 16.2 8.7 25.5 10 9.4 1.2 19.1.3 28.7-2.9 15.4-5 26.2-8 36.1-9 10.2-1 19.7.3 31.5 4.2 33.9 11.9 52.5 5.8 70.2-7 17.6-12.8 29.1-28.6 28.3-64.4 0-12.5 1.7-21.9 5.8-31.4 4-9.2 10.2-18.5 19.7-31.5 5.9-8.2 9.8-17.1 11.6-26.5 1.7-9.2 1.1-18.7-1.7-27.4-1.6-5.1-4-9.9-7.3-14.4 5.3-1.7 10.1-4.2 14.4-7.4 7.4-5.3 13.4-12.7 17.4-21.2 4.1-8.6 6.1-18.1 6.1-28.2.1-16.1.5-27.3 2.7-37.1 2.2-10 6.4-18.6 13.8-28.8 21.7-28.4 21.7-48 14.9-68.8-4.2-12.9-10.3-24-22.6-32.9.1 0 .2-.1.2-.1 10.7-4.2 18.8-9 23.2-12.4 14.1 2.7 28.4 2.4 42.4-.9 21.2-5.2 39.2-16.6 48.3-30.9 38.4.4 66.5-15.8 86-47.7 69.5-4.7 97.9-42.3 108.1-72 103.2-25.5 104.5-97.6 103.7-107.3 2-1.3 5.3-3.5 5.3-3.5 45.9-30.9 55-67.8 55-92.7 0-7.5-.8-14.7-1.7-19.4 49.6-41.8 39.5-91.6 32.1-110.1 0-.2.1-.3.1-.3M825 856.5c-20-2-62.3-10.3-95-45.1-7.5-8-16.4-16.2-24.6-22.5 15.4 1.4 104 9.4 136.1 12.2-4.8 17.1-10.4 35.9-16.5 55.4m353.1-45.1c-32.7 34.8-75.1 43.1-95.1 45.1-6.1-19.6-11.7-38.4-16.3-55.4 32.1-2.8 120.6-10.8 136-12.2-8.3 6.3-17.1 14.5-24.6 22.5z" class="st0"/><g id="eagleFeathers"><path id="path9" d="M1370.1 910.1h-111.4l.4-.7 55.3-119.9 55.7 120.6z" class="st4"/><path id="path11" d="M1412.2 847.4c-16.6 5.8-34.3 8.7-51.9 9.7l-17.8-37.8c41.2-5.6 80.3-14.2 116.8-24.9-1.7 12.2-9.6 39.9-47.1 53z" class="st4"/><path id="path13" d="M1423.1 856.9c-6 24.6-19.3 41.2-39.6 49.7l-17.5-37.4c17.2-1.2 34.4-4.2 50.7-9.9 2.2-.7 4.3-1.6 6.4-2.4z" class="st4"/><path id="path15" d="M1131.5 1112.5c0-1.8-.5-3.3-1.7-4.6-1.2-1.3-2.7-1.8-4.4-1.8-.7 0-1.4.1-2.1.3-.9.3-1.8.8-2.4 1.5l-60.8 61.9c-4.3-4.6-9-8.9-14-12.9l54.4-72.7c7.7-10.6 19-18.2 30.8-18.3 12.7 0 24.3 5.6 33.1 17.5 9.9 13.7 18 23.9 27.3 32-19.6 13.7-68.3 47.7-112.9 78.9-3.6-5.8-7.5-11.3-11.8-16.6l62.7-60.8c1.3-1.2 2-2.8 1.8-4.4z" class="st4"/><path id="path17" d="M1057.4 1056.7c-.6-1.6-1.6-2.8-3.1-3.6-1.6-.8-3.2-.8-4.9-.3-1.5.4-2.9 1.5-3.6 3l-38.5 78.4c-6.2-2.5-12.8-4.5-19.3-6.1 15.8-52 33.1-108.9 40.1-131.7 10.4 6.4 22.7 10.9 38.8 16.1 14.1 4.8 22.9 13.9 26.9 26.1 3.6 11.3-.1 24.4-7.8 34.9l-52.3 74.3c-5.3-3.5-11-6.6-16.7-9.4l40.1-76.9c.5-.9.7-1.8.7-2.8-.1-.6-.2-1.3-.4-2z" class="st4"/><path id="path19" d="m851 1061.6 40.1 76.9c-5.8 2.7-11.4 5.8-16.7 9.4l-52.3-74.3c-7.7-10.6-11.3-23.7-7.8-34.9 3.9-12.1 12.7-21.3 26.8-26.1 16.1-5.2 28.4-9.7 38.9-16.1 7 22.8 24.2 79.7 40.1 131.7-6.6 1.6-13 3.6-19.3 6.1l-38.5-78.4c-.7-1.5-2.1-2.6-3.6-3-1.6-.6-3.3-.5-4.9.3-1.6.7-2.5 2-3 3.6-.3.7-.4 1.4-.4 2.1-.1.8.1 1.8.6 2.7z" class="st4"/><path id="path21" d="m778.3 1116.9 62.7 60.8c-4.3 5.2-8.2 10.8-11.8 16.6-44.6-31.2-93.3-65.2-112.9-78.9 9.3-8 17.4-18.2 27.3-32 8.8-11.9 20.3-17.5 33.1-17.5 11.8.1 23.1 7.7 30.8 18.3l54.5 72.7c-4.9 4.1-9.7 8.4-14 12.9l-60.7-61.9c-.6-.7-1.5-1.2-2.5-1.5-.7-.2-1.3-.3-2-.3-1.7 0-3.3.6-4.4 1.8-1.2 1.2-1.8 2.8-1.8 4.6-.2 1.6.5 3.2 1.7 4.4z" class="st4"/><path id="path23" d="M1245.4 838.7c11.8-7.7 24.8-12.5 38.4-13.8l-10.7 22.6c-10.8-2.8-20.3-5.9-27.7-8.8z" class="st4"/><path id="path25" d="m1267.8 858.7-13.6 28.6c-16.6-8.3-30-16.7-37.3-21.5.7-.8 1.3-1.7 2-2.5 4.7-5.9 9.8-11.4 15.2-16.1 8.3 3.8 19.9 7.9 33.7 11.5z" class="st4"/><path id="path27" d="M1206.9 854.1c-24.9 33.4-66.2 55.4-105.4 59.2-4.2-13-8.5-25.9-12.6-38.7 22.9-2.5 67-12.3 103.2-50.9 22.5-24 51.7-44.1 93.7-43.9 6.4 0 12.9-.1 19.4-.3l-14.5 30.8c-28.5.2-60.1 12.2-83.8 43.8z" class="st4"/><path id="path29" d="M1122.5 1049.6c-2.5.4-4.9 1-7.4 1.8-.8.3-1.7.6-2.6.9.1-.9.1-1.8.1-2.7 0-5.4-.8-10.6-2.4-15.5-.2-.3-.3-.6-.4-.9 2.3-3 4.7-6.7 6.9-11.4 2.6 10.1 4.5 19.4 5.8 27.8z" class="st4"/><path id="path31" d="M1105.1 1023c-6.3-10.2-16.1-18.4-28.2-23.4 2.3-1.7 16.4-13.5 21.8-38.1 5.4 16.4 10.3 32.2 14.4 46.8-2.2 6-5.2 11-8 14.7z" class="st4"/><path id="path33" d="M1055.1 944.9c6.5-6.4 18.2-21.2 22.5-46.5.1-.1.1-.1.1-.2 3.8 11.4 7.7 22.8 11.4 34.3l.2.7c1.2 3.6 2.4 7.2 3.6 10.9-.8 24.6-13.7 40.6-19 44-5.1-3.4-17.8-19.1-18.8-43.2z" class="st4"/><path id="path35" d="M1067.4 996.3c-11.7-3.8-20.7-7.3-28.4-11.5 4.1-4.7 8.3-11.1 11.2-19.5 4.5 16.1 12.5 26.1 17.2 31z" class="st4"/><path id="path37" d="M1074.1 887.3c-1.2 1.4-2.4 2.4-3.3 3.1-5-3.1-16.9-17-19.5-38.7 1.6-1.3 5-4.5 8.5-9.5 4.5 14.5 9.3 29.7 14.3 45.1z" class="st4"/><path id="path39" d="M1068.4 902.2c-5.4 19.7-15.7 31.8-20.3 34.8-5-3.2-16.6-17.2-19.6-39.7 3.8-3.3 12.8-12.5 18.2-28.8 6.9 23 20.9 33.2 21.7 33.7z" class="st4"/><path id="path41" d="M1024.3 886.9c-4.7-3.1-15.5-16.2-18.3-36.5 4.5-4.1 13.4-14.2 18.3-31.4 4.9 17.2 13.8 27.3 18.3 31.4-2.8 20.2-13.6 33.4-18.3 36.5z" class="st4"/><path id="path43" d="M1000.9 840.7c-4.7-3-15.4-16-18.3-36 4.5-4.1 13.4-14.2 18.3-31.3 4.9 17.1 13.7 27.2 18.2 31.3-2.9 20.1-13.6 33-18.2 36z" class="st4"/><path id="path45" d="M995.7 850.3c-2.7 20.3-13.5 33.4-18.3 36.5-4.6-3.1-15.5-16.2-18.3-36.5 4.4-4.1 13.4-14.2 18.3-31.4 4.9 17.3 13.9 27.3 18.3 31.4z" class="st4"/><path id="path47" d="M954 840.7c-4.7-3-15.4-16-18.2-36 4.4-4.1 13.3-14.2 18.2-31.3 4.8 17.1 13.8 27.2 18.2 31.3-2.9 20.1-13.5 33-18.2 36z" class="st4"/><path id="path49" d="M948.9 850.3c-2.8 20.3-13.6 33.4-18.3 36.5-4.7-3.1-15.5-16.2-18.3-36.5 4.4-4.1 13.4-14.2 18.3-31.4 4.9 17.3 13.9 27.3 18.3 31.4z" class="st4"/><path id="path51" d="M907.2 840.7c-4.6-3-15.3-16-18.2-36 4.4-4.1 13.4-14.2 18.2-31.3 4.8 17.1 13.8 27.2 18.2 31.3-2.9 20.1-13.6 33-18.2 36z" class="st4"/><path id="path53" d="M902.1 850.3c-2.9 20.3-13.7 33.4-18.3 36.5-4.7-3.1-15.6-16.2-18.3-36.5 4.4-4.1 13.5-14.2 18.3-31.4 4.8 17.3 13.8 27.3 18.3 31.4z" class="st4"/><path id="path55" d="M879.5 897.3c-3.1 22.5-14.7 36.5-19.6 39.7-4.6-3-14.9-15.1-20.3-34.8.9-.5 14.9-10.7 21.8-33.7 5.3 16.3 14.3 25.5 18.1 28.8z" class="st4"/><path id="path57" d="M795.5 1052.3c-.9-.3-1.7-.6-2.6-.9-2.5-.8-4.9-1.4-7.4-1.8 1.2-8.3 3.2-17.7 5.7-27.8 2.2 4.7 4.6 8.3 6.9 11.4-.2.3-.2.6-.3.9-1.6 4.9-2.4 10.1-2.4 15.5.1.9.1 1.8.1 2.7z" class="st4"/><path id="path59" d="M794.9 1008.3c4.1-14.6 9.1-30.4 14.4-46.8 5.4 24.6 19.6 36.4 21.8 38.1-12.1 5-21.9 13.2-28.2 23.4-2.8-3.7-5.7-8.7-8-14.7z" class="st4"/><path id="path61" d="M815.1 944c1.2-3.6 2.4-7.3 3.6-10.9l.2-.7c3.8-11.5 7.6-22.9 11.3-34.3.1.1.1.1.1.2 4.2 25.3 16 40.1 22.4 46.5-1 24-13.7 39.7-18.9 43.1-5-3.3-17.9-19.3-18.7-43.9z" class="st4"/><path id="path63" d="M857.7 965.2c2.9 8.4 7.1 14.8 11.3 19.5-7.8 4.2-16.8 7.7-28.5 11.5 4.8-4.8 12.8-14.8 17.2-31z" class="st4"/><path id="path65" d="M837.3 890.4c-1-.7-2.1-1.7-3.4-3.1 5.1-15.4 9.9-30.6 14.3-45.1 3.6 5 6.9 8.2 8.5 9.5-2.6 21.7-14.5 35.5-19.4 38.7z" class="st4"/><path id="path67" d="M715.9 823.8c36.2 38.6 80.3 48.5 103.2 50.9-4.1 12.8-8.4 25.8-12.7 38.7-39.1-3.8-80.4-25.9-105.2-59.2-23.7-31.7-55.4-43.6-83.8-43.7l-14.6-30.8c6.6.2 13 .3 19.4.3 42.1-.3 71.2 19.8 93.7 43.8z" class="st4"/><path id="path69" d="M662.6 838.7c-7.5 3-16.9 6.1-27.7 8.8l-10.7-22.6c13.7 1.3 26.6 6.1 38.4 13.8z" class="st4"/><path id="path71" d="M673.8 847.2c5.5 4.7 10.6 10.2 15.2 16.1.7.9 1.3 1.7 2 2.5-7.3 4.8-20.7 13.1-37.3 21.5l-13.5-28.6c13.9-3.6 25.4-7.7 33.6-11.5z" class="st4"/><path id="path73" d="m665.4 912.1-6.3-13.4c18.5-9.4 32.9-18.7 39.9-23.5 5.5 6 11.1 11.5 17 16.5-14.3 17.2-59.8 65.1-118.6 64.3-33.6-.4-50.8-16.9-59-29 13 6.6 32.2 13.5 55.1 13.5 36.9 0 63.4-17.1 70.9-23.3 2.5-2 1.8-3.5 1-5.1z" class="st4"/><path id="path75" d="M725.9 899.3c6.3 4.5 13 8.6 19.8 12-8.3 15.6-40.1 68.7-92.9 77.6-31.7 5.3-47.8-10.9-54.2-20.2 65.7.3 112.9-51.5 127.3-69.4z" class="st4"/><path id="path77" d="M756.9 916.4c7.4 3.1 15.2 5.5 23.2 7.4-5.9 17.8-23.2 61.4-53.8 79.1-28.6 16.4-50 4.8-60.5-4 53.9-14.7 83.7-67.5 91.1-82.5z" class="st4"/><path id="path79" d="M733 1013.5c36-20.6 53.8-69.4 59.4-87.3 3.1.5 6.2.9 9.5 1.3-9.7 29-19.1 57.2-25.8 81.9-18.3 15-39.1 10.7-49.1 7.4 2-1 3.9-2.1 6-3.3z" class="st4"/><path id="path81" d="M878.7 978.3c-6.7-5.1-14.2-15.3-16.2-29.7 1.3-.9 14.5-11.1 21.4-33.4 7.3 20.7 19.8 30.3 20.6 30.8l1.4 1c-3.8 4-7.4 8.7-11.1 14-5.3 7.3-10.4 12.9-16.1 17.3z" class="st4"/><path id="path83" d="M887.6 897.6c3.8-3.2 14.1-13.5 19.5-32.5 5.4 19 15.8 29.3 19.6 32.5-3.9 20.4-14.8 33.6-19.6 36.7-4.7-3.1-15.6-16.3-19.5-36.7z" class="st4"/><path id="path85" d="M931.8 911.3c2.5 6.5 5.5 11.9 8.5 16.1-5 .9-10.4 2.5-15.8 5.2-1.5.7-2.9 1.6-4.4 2.5 4.1-5.6 8.5-13.4 11.7-23.8z" class="st4"/><path id="path87" d="M935.8 896.5c4.4-4.1 13.4-14.2 18.3-31.4 4.8 17.2 13.8 27.2 18.3 31.4-4.1 15.1-11.7 25.6-16.4 29.9-.7-.1-1.2-.1-1.8-.1s-1.2 0-1.9.1c-4.9-4.3-12.6-14.8-16.5-29.9z" class="st4"/><path id="path89" d="M976.3 911.3c3.1 10.4 7.6 18.2 11.7 23.8-1.5-.9-2.9-1.8-4.4-2.5-5.4-2.7-10.7-4.3-15.8-5.2 2.9-4.2 6-9.6 8.5-16.1z" class="st4"/><path id="path91" d="M981.4 897.6c3.7-3.2 14.1-13.5 19.5-32.5 5.3 19 15.8 29.3 19.5 32.5-3.9 20.4-14.8 33.6-19.5 36.7-4.7-3.1-15.7-16.3-19.5-36.7z" class="st4"/><path id="path93" d="M1003.4 946.1c.8-.5 13.3-10.1 20.7-30.8 6.9 22.3 20.1 32.5 21.4 33.4-2 14.3-9.6 24.5-16.2 29.7-5.7-4.5-10.8-10-16.1-17.3-3.6-5.3-7.3-10-11-14l1.2-1z" class="st4"/><path id="path95" d="M1106.2 927.5c3.2-.4 6.4-.8 9.4-1.3 5.6 18 23.5 66.7 59.4 87.3 2.1 1.2 4.1 2.2 6.1 3.2-9.9 3.4-30.9 7.6-49.1-7.4-6.7-24.6-16.1-52.8-25.8-81.8z" class="st4"/><path id="path97" d="M1127.9 923.8c8.1-1.9 15.8-4.3 23.2-7.4 7.5 15 37.2 67.9 91 82.6-10.5 8.8-31.8 20.4-60.5 4-30.6-17.8-47.8-61.4-53.7-79.2z" class="st4"/><path id="path99" d="M1162.3 911.3c6.8-3.5 13.4-7.5 19.7-12 14.4 17.9 61.6 69.7 127.3 69.5-6.4 9.2-22.6 25.5-54.3 20.2-52.6-8.9-84.5-62.1-92.7-77.7z" class="st4"/><path id="path101" d="M1191.8 891.8c5.9-5 11.6-10.5 17-16.5 7.1 4.8 21.5 14.1 40 23.5l-6.3 13.4c-.7 1.6-1.4 3.1 1 5.2 7.5 6.2 34 23.3 70.8 23.3 22.9 0 42.1-6.9 55.1-13.5-8.2 12.1-25.4 28.5-59 29-58.8.7-104.1-47.3-118.6-64.4z" class="st4"/><path id="path103" d="M1306 753.8v8.4s-194.1 15.7-244.1 20.1c-2.1-9.1-3.9-17.5-5.1-25.2v-.1c-.2-1-.4-2.1-.6-3.2H1306z" class="st4"/><path id="path105" d="M1056.3 830.6c-3.1 5.2-6.5 8.7-8.7 10.1-4.7-3-15.3-16-18.2-36 3.6-3.4 9.8-10.5 14.1-22.1 3.4 14.6 7.8 30.8 12.8 48z" class="st4"/><path id="path107" d="M852.7 671.6c-2.2-.1-6.7-.1-9-.1-4.2 0-23.5.4-28.9 12-3.8-5.7-6.9-11.7-9-18.1-2.2-6.8-3.4-13.9-3.4-20.5.1-6.9 1.4-11.9 4-15.4 2.5-3.3 6.6-5.6 12.3-7.2 13.1-3.5 31.9-5.1 45.7-4.1l.1.1h.1l4.4.3c6.8.3 25.5 11 36.9 28.8 0 0 40.1-7.5 67.2-33.9 0 0-50.5 5.2-92.4-.8-.7-.1-2.1-.7-1.3-2.5 0 0 .2-.5.6-1.1v-.1c3.3-5 8.5-11.3 24.1-16.2h.1c7.5-2.4 18.7-3.9 32.5-4.5 14.2-.6 31-.3 49.8 1.1 28.3 2 49.4-.3 64.3-3.8-4.3 11.3-12.2 24.8-26.6 34.6h-.1l-5.1 3.5-5.4 3.8 2.6 6.1 2.3 5.6c4.6 11.6 7.9 34.6 11.6 61.1l.4 3.1c2.2 16.7 5 36.5 8.5 56.7 0 .4.1.8.1 1.1-1 18.7-10.3 30.9-14.8 34h-.3c-5.5-3.7-18.6-20.3-18.8-45.5h-9c-.2 25.2-13.3 41.9-18.8 45.5h-.2c-5.5-3.7-18.6-20.3-18.9-45.5h-9c-.2 25.2-13.3 41.9-18.8 45.5h-.3c-5.4-3.7-18.6-20.3-18.8-45.5h-9c-.2 25.2-13.3 41.9-18.8 45.5h-.2c-4.4-3-13.2-14.4-14.7-32.1 2.9-11.7 6.8-25.2 7-26 4.5-15.1 6.8-28.6 6.9-29.2v-.1c1.7-10.7-.1-19.3-5.3-25.7-5.1-6.5-13.6-10.1-24.6-10.5z" class="st4"/><path id="path109" d="M878.5 804.8c-2.9 20-13.6 32.9-18.2 36-2.1-1.4-5.5-4.9-8.7-10.1 5.1-17.2 9.5-33.4 12.8-48 4.4 11.5 10.6 18.7 14.1 22.1z" class="st4"/><path id="path111" d="M602 753.8h250.7c-1.3 4.9-2.5 9.9-3.4 14.1v.2c-1 4.6-2 9.4-3.2 14.3C794 777.8 602 762.2 602 762.2v-8.4z" class="st4"/><path id="path113" d="M593.6 789.5 649 909.4l.4.7H538l55.6-120.6z" class="st4"/><path id="path115" d="M491.4 859.3c16.2 5.7 33.5 8.8 50.7 9.9l-17.6 37.4c-20.3-8.5-33.6-25.2-39.6-49.7 2.1.8 4.2 1.7 6.5 2.4z" class="st4"/><path id="path117" d="M448.6 794.3c36.7 10.7 75.7 19.3 116.8 24.9L547.8 857c-17.7-1-35.4-3.9-52-9.7-37.4-13-45.5-40.7-47.2-53z" class="st4"/><path id="path119" d="M139.4 570.9c104 105.9 281.6 195.9 445.1 207.6l-13 27.8C354.7 780 202.7 664.6 155.2 618.5c-17.3-16.6-19.3-36.8-15.8-47.6z" class="st4"/><path id="path121" d="M159.8 642.5C205 682.9 303 749.2 435 790.2c.5 8 3.8 30.4 22.8 48.9-86.5-10.6-204.6-51.8-269-108.3-40.1-35.1-35.6-70-29-88.3z" class="st4"/><path id="path123" d="M192.9 753.2c74.3 57.4 194.4 92.8 277.7 99.9 2.8 14.7 8.3 30.1 18.7 42.9-75.3 5.8-176.5-6.1-249.4-55-46.7-31.5-49.3-69.1-47-87.8z" class="st4"/><path id="path125" d="M323 944.9c-38.4-14.6-65.3-40.5-69.2-78.3 76.9 41.8 175.5 48.5 247.2 41.1 5.2 4.2 11.4 7.9 18.5 10.8 1 3 6.2 16.1 19.1 28.2-28.3 8.7-124.3 33-215.6-1.8z" class="st4"/><path id="path127" d="M454.8 1021.5c-48.5-1.8-80.2-18.6-94.5-50.3 95.3 20 179.9-11.1 190.5-15.2 8.5 5.3 19.1 9.7 32.2 11.6.6 1.3 4.6 9.6 13.3 17.9-16.4 9.5-72.7 38.6-141.5 36z" class="st4"/><path id="path129" d="M466.6 1036.6c66.1-1.2 122.9-31 140.7-42.9 10.3 6.2 24.5 10.5 43.2 8.2 2.1 2.2 5.3 5.3 9.4 8.4-14.4 14-52.6 46.2-106.2 55.5-40.2 7.1-67.7-2.6-87.1-29.2z" class="st4"/><path id="path131" d="M587.6 1100.7c-14.4-1.8-27.5-10.2-35.5-19.1 62.7-8.5 104.8-48.3 119.4-64.2 10.4 5.2 24.1 8.4 40.1 4.7 2 2.1 5.8 4.5 10.9 6.4-14.6 20.2-65 81-134.9 72.2z" class="st4"/><path id="path133" d="M644.7 1109.7c49.2-17.2 82.3-62.9 91.8-77.5 10.6 1.5 23.2.8 35.1-4.8-1.9 8.1-3.3 15.6-4.1 22.5-14.1 2.7-27.1 11.3-36.6 24.3-18.4 25.3-28.3 36.4-53 44.4-.1 0-.4.1-.5.1-14.2-.8-25.2-5-32.7-9z" class="st4"/><path id="path135" d="M654.2 1221.9c-19-26.2-16-39.8-11.8-52.7 4.1-12.9 9.7-25.7 40.5-35.7 9.4-3.1 17-6.6 23.8-10.9 18 12.4 70.1 48.1 117.5 80.6-2.8 5.5-5.3 11.2-7.5 17.1l-116.9-39.4c-3.4-1.1-7.3.7-8.5 4.3-1.1 3.6.8 7.3 4.4 8.5l117.7 36.8c-1.7 6-3 12-3.9 18.2-57.3-1.6-120.6-3.3-142.4-3.9-3-7.6-7.1-14.9-12.9-22.9z" class="st4"/><path id="path137" d="M690.4 1331.7c-10.3-7.5-16.4-18.7-16.6-33.6 0-16.9-.5-29.9-3.3-41.9 23.9.4 83.3 1.5 137.7 2.5-.3 3.9-.4 7.8-.4 11.7 0 2.9.1 5.7.2 8.6l-86.5 12.3c-1.6.2-3.1 1.2-4.1 2.5-1 1.4-1.5 3-1.2 4.7.2 1.7 1.1 3 2.5 4.1.5.4 1.2.7 1.7 1 1 .3 2 .4 3 .2l85.5-14.4c.9 6.3 2.1 12.6 3.7 18.8l-86.8 26.8c-12.3 4.1-25.8 3.5-35.4-3.3z" class="st4"/><path id="path139" d="M711.1 1412.7c-8.6-12.1-10.3-24.7-6.4-36.9 3.7-11.2 14.3-19.6 26.8-23.7l85.9-29.3c2.3 6 5 11.8 8 17.4l-77.6 38.6c-.9.4-1.6 1.1-2.2 1.9-.4.5-.7 1.1-1 1.8-.4 1.6-.4 3.2.4 4.7s2.1 2.5 3.8 3.1c1.6.6 3.3.4 4.8-.3l77.2-40.8c3.6 5.7 7.7 11.1 12.1 16.3-43.4 32.8-90.8 68.6-109.9 83-4.7-11.2-11.9-22.1-21.9-35.8z" class="st4"/><path id="path141" d="M840.8 1535.5c-8 .5-16.3 2.1-25.7 5.1-30.7 10-42.7 2.9-53.7-5.1S740 1518.3 740 1486c0-9.9-1-18.3-3-26 17.3-13.3 67.5-51.9 113-86.9 4.4 4.4 8.9 8.5 13.8 12.4l-73.6 99c-2.2 3-1.6 7.2 1.5 9.4 3 2.2 7.2 1.4 9.4-1.4l71.5-100.7c5.1 3.5 10.5 6.6 16 9.4-19.3 54-40.4 113.7-47.8 134.3z" class="st4"/><path id="path143" d="M945 1507.2c0 13.2-4.7 25.8-14.2 32.8-10.4 7.5-22.9 9.8-37 5.4-16.1-5.3-28.6-8.8-40.9-9.8 7.9-22.6 27.2-78.8 45-130.2 6.2 2.7 12.7 4.8 19.2 6.5l-14.9 86c-.3 1.7.1 3.4 1.1 4.7 1 1.4 2.4 2.3 4.1 2.6 1.7.3 3.3-.1 4.6-1.1.7-.4 1.1-.9 1.5-1.4.6-.8 1-1.7 1.2-2.7l12.7-85.8c6.2 1.2 12.6 1.9 19 2.3l-1.4 90.7z" class="st4"/><path id="path145" d="M954 994.2c-3.8 0-6.7 3.1-6.7 6.7l1.3 123.4c-6.3.2-12.4.8-18.5 1.8-16.2-55-34.1-115.7-40.4-136.7 6.2-5.1 11.9-11.3 17.8-19.2 19-26.2 32.9-27.5 46.5-27.5s27.5 1.3 46.4 27.5c5.8 7.9 11.6 14.1 17.8 19.2-6.2 21-24.1 81.7-40.4 136.7-6-1-12.2-1.6-18.5-1.8l1.3-123.4c.1-3.6-2.9-6.7-6.6-6.7z" class="st4"/><path id="path147" d="M1014.3 1545.4c-14.1 4.4-26.7 2.1-37-5.4-9.6-7-14.3-19.7-14.3-32.8l-1.3-90.8c6.5-.3 12.8-1.1 19-2.3l12.7 85.8c.2.9.5 1.9 1.1 2.7.5.6.9 1.1 1.5 1.4 1.4 1 2.9 1.5 4.6 1.1 1.8-.3 3.1-1.2 4.2-2.6 1.1-1.3 1.5-3 1.2-4.7l-14.9-86c6.6-1.7 13-3.8 19.2-6.5 17.8 51.4 37.1 107.6 44.9 130.2-12.3 1.1-24.8 4.6-40.9 9.9z" class="st4"/><path id="path149" d="M1168 1486c.1 32.3-10.4 41.5-21.4 49.5-11.1 7.9-23 15.1-53.7 5.1-9.4-3.1-17.7-4.7-25.7-5.1-7.2-20.6-28.5-80.2-47.7-134.3 5.6-2.8 11-5.9 16.1-9.4l71.4 100.7c2.2 2.8 6.4 3.6 9.4 1.4s3.6-6.4 1.5-9.4l-73.7-99c4.9-3.9 9.5-8 13.9-12.4 45.5 35 95.6 73.6 113 86.9-2.1 7.7-3 16.1-3.1 26z" class="st4"/><path id="path151" d="M1196.9 1412.7c-9.9 13.6-17.2 24.5-21.9 35.9-19.1-14.4-66.5-50.3-109.9-83 4.4-5.2 8.4-10.6 12.2-16.3l77.2 40.8c1.5.8 3.3.9 4.8.3 1.6-.6 3-1.6 3.8-3.1s.9-3.2.4-4.7c-.2-.7-.5-1.3-.9-1.8-.6-.8-1.3-1.5-2.2-1.9l-77.6-38.6c3-5.5 5.7-11.3 8.1-17.4l85.9 29.3c12.4 4.1 23.1 12.5 26.8 23.7 3.6 12.1 1.9 24.7-6.7 36.8z" class="st4"/><path id="path153" d="M1234.1 1298.1c-.1 14.9-6.1 26.1-16.5 33.6-9.5 6.9-23.2 7.4-35.6 3.4l-86.8-26.8c1.7-6.2 2.9-12.4 3.8-18.8l85.4 14.4c1 .2 2 .1 2.9-.2.7-.2 1.3-.5 1.9-1 1.4-1.1 2.2-2.4 2.5-4.1s-.3-3.3-1.2-4.7c-.9-1.3-2.4-2.3-4.1-2.5l-86.5-12.3c.1-2.9.2-5.7.2-8.6 0-4-.2-7.8-.4-11.7 54.4-1 113.8-2.1 137.7-2.5-2.7 11.9-3.3 24.9-3.3 41.8z" class="st4"/><path id="path155" d="M1253.8 1221.9c-5.8 8-9.9 15.3-12.8 22.8-21.8.6-85.1 2.3-142.5 3.9-.9-6.2-2.2-12.2-3.9-18.2l117.8-36.8c3.5-1.2 5.5-4.9 4.3-8.5-1.1-3.5-5-5.4-8.5-4.3l-117 39.4c-2.2-5.9-4.7-11.6-7.5-17.1 47.3-32.4 99.5-68.2 117.5-80.6 6.7 4.3 14.4 7.9 23.8 10.9 30.8 10 36.2 22.8 40.5 35.7 4.3 13 7.4 26.6-11.7 52.8z" class="st4"/><path id="path157" d="M1230.6 1118.7c-.1 0-.4-.1-.5-.1-24.6-8-34.6-19.1-53-44.4-9.5-13-22.4-21.6-36.6-24.3-.9-6.9-2.2-14.4-4-22.5 11.8 5.5 24.4 6.3 35 4.8 9.5 14.6 42.7 60.4 91.8 77.5-7.5 4-18.4 8.2-32.7 9z" class="st4"/><path id="path159" d="M1320.5 1100.7c-69.9 8.8-120.3-52-134.9-72.2 5-1.9 8.8-4.2 10.9-6.4 16 3.7 29.6.5 40-4.7 14.6 15.9 56.7 55.6 119.4 64.2-7.9 8.9-21.2 17.3-35.4 19.1z" class="st4"/><path id="path161" d="M1354.2 1065.9c-53.5-9.3-91.8-41.5-106.1-55.5 4.2-3.1 7.3-6.1 9.4-8.4 18.7 2.3 32.8-2 43.3-8.2 17.7 11.8 74.5 41.7 140.6 42.9-19.3 26.5-46.9 36.2-87.2 29.2z" class="st4"/><path id="path163" d="M1453.2 1021.5c-68.8 2.5-125.1-26.6-141.5-36.1 8.7-8.3 12.8-16.6 13.3-17.9 13.1-2 23.8-6.3 32.2-11.6 10.6 4.2 95.2 35.2 190.5 15.2-14.2 31.8-46 48.7-94.5 50.4z" class="st4"/><path id="path165" d="M1585.1 944.9c-91.4 34.8-187.4 10.5-215.6 1.7 12.8-12.1 18-25.2 19.1-28.2 7.1-2.9 13.2-6.6 18.6-10.8 71.6 7.4 170.3.7 247.2-41.1-4.1 37.8-31 63.8-69.3 78.4z" class="st4"/><path id="path167" d="M1668.1 841c-72.8 48.9-174.1 60.7-249.4 55 10.4-12.8 15.9-28.1 18.7-42.9 83.2-7.1 203.3-42.5 277.6-99.9 2.4 18.7-.1 56.3-46.9 87.8z" class="st4"/><path id="path169" d="M1719.3 730.8c-64.5 56.5-182.5 97.7-269.1 108.3 19-18.5 22.2-40.9 22.8-48.9 131.9-41 229.9-107.3 275.1-147.6 6.6 18.2 11.2 53.1-28.8 88.2z" class="st4"/><path id="path171" d="M1752.8 618.5c-47.6 46-199.5 161.5-416.4 187.8l-12.9-27.8c163.6-11.7 341.2-101.8 445.1-207.6 3.5 10.8 1.5 31-15.8 47.6z" class="st4"/></g><g id="taeguk"><path id="path174" d="M954 1140.5c-45.1 0-84.8 23-108.1 57.9-19.9 29.9-11.9 70.2 18.1 90.1 29.8 19.9 70.2 11.8 90.1-18 19.9-29.9 60.2-38 90.1-18.1 29.8 19.9 37.9 60.3 18 90.2 13.8-20.7 21.8-45.4 21.8-72.1 0-71.8-58.2-130-130-130z" style="fill:#ed1b2f"/><path id="path176" d="M1044.1 1252.4c-29.9-19.9-70.2-11.8-90.1 18.1-19.9 29.9-60.3 37.9-90.1 18-29.9-19.9-38-60.2-18.1-90.1-13.8 20.6-21.8 45.4-21.8 72.1 0 71.8 58.2 130 130 130 45.1 0 84.8-22.9 108.1-57.8 19.9-30 11.9-70.4-18-90.3z" style="fill:#0054a6"/></g></g><path d="m199.6 1010.7 41.3 33.9-.4 25.6-43.6-38-49.3 38 .4-27 43.8-32.6-43.3-.7.4-21.7 92.9 1.5-.4 21.7-41.8-.7zM195.4 1081.1c8.7-1.1 17.1.1 25.3 3.7 8 3.4 14.6 8.6 19.8 15.5 5.4 7.1 8.7 15.1 9.8 23.9 1.1 8.9 0 17.5-3.5 25.7-3.4 8.1-8.5 14.7-15.2 20-7 5.5-14.9 8.8-23.6 9.9-8.7 1.1-17.1-.1-25.3-3.7-7.9-3.5-14.5-8.7-19.8-15.5-5.4-7.1-8.7-15.1-9.9-24-1.1-8.8 0-17.3 3.5-25.6 3.4-8.1 8.5-14.7 15.2-20 7.2-5.5 15-8.8 23.7-9.9zm2.7 20.7c-8.7 1.1-15.6 5.2-20.6 12.2-4.4 6.1-6.1 12.8-5.2 20.1 1.1 8.5 5.2 15.2 12.5 20.1 6.3 4.2 13.2 5.8 20.7 4.8 8.8-1.1 15.7-5.2 20.7-12.3 4.3-6.1 6-12.9 5-20.3-1.1-8.5-5.2-15.2-12.4-20-6.2-4-13.1-5.6-20.7-4.6zM180.1 1258.8l27.1-25.7c0-.1-.1-.2-.1-.4v-.1l-.7-2-.6-2.2-.6-2.2-31.4 8.1-5.2-20.1L259 1191l5.8 22.2c2.4 9.2 2.8 16.8 1.1 22.7-1.5 5.4-4.3 10-8.5 13.9-3.8 3.3-8.1 5.6-13 6.8-4.8 1.2-9.5 1.4-14.2.3-4.7-1-8.8-3.1-12.4-6.2l-31.8 30.7-5.9-22.6zm43.4-37.4.9 3.4c1.5 5.8 3.5 9.6 6.1 11.4 2.3 1.6 5.2 2 8.8 1 3.9-1 6.4-3 7.7-5.9 1.2-2.9 1.1-7-.2-12.4l-.9-3.4-22.4 5.9zM300.9 1324.5l-17.8 6.6-12-32.1-16.4 6.1 10.7 28.6-18 6.7-10.7-28.6-17.3 6.5 12.4 33.3-18 6.7-19.6-52.6 87.5-32.6 19.2 51.4zM267.9 1424.1l-15.9-31.6-21.6 2.9-9.8-19.5 99.1-10.9 10.7 21.3-67.7 73.2-9.9-19.6 15.1-15.8zm14.1-14.6 23.2-24.1-33 4.4 9.8 19.7zM275.4 1480.3l77.4-52.3 9.7 14.4-22.8 67.5 47-31.8 11.6 17.2-77.4 52.3-9.7-14.4 22.8-67.5-47 31.8-11.6-17.2zM406.7 1646.3l62.6-69.2 12.9 11.6-6.1 71 38-42 15.4 13.9-62.6 69.2-12.9-11.6 6.1-71-38 42-15.4-13.9zM550.5 1736.3l-29.1-20.2-17.6 12.8-17.9-12.5 82-56.7 19.5 13.6-24.8 96.6-18-12.6 5.9-21zm5.4-19.6 8.9-32.2-27 19.6 18.1 12.6zM675.5 1725.3l-9.3 16.8-19.1-10.5-35.8 65-18.1-10 35.8-65-19.3-10.6 9.3-16.8 56.5 31.1zM707.6 1739.7l-38.9 84.9-18.8-8.6 38.9-84.9 18.8 8.6zM708.9 1792.7c2.8-8.3 7.7-15.3 14.5-21.1 6.6-5.6 14.1-9.3 22.7-10.9 8.8-1.7 17.4-1.2 25.8 1.7 8.5 2.9 15.7 7.7 21.5 14.5 5.7 6.6 9.5 14.1 11.3 22.5 1.9 8.7 1.4 17.2-1.5 25.5-2.8 8.3-7.7 15.3-14.5 21.1-6.6 5.5-14.2 9.2-22.7 10.9-8.8 1.7-17.4 1.2-25.9-1.7-8.4-2.9-15.5-7.7-21.4-14.4-5.7-6.6-9.5-14.1-11.3-22.5-1.8-8.8-1.4-17.3 1.5-25.6zm19.7 6.7c-2.8 8.3-2.2 16.3 1.9 23.9 3.6 6.6 8.8 11.1 15.8 13.5 8.1 2.8 16 2 23.6-2.3 6.5-3.8 11-9.3 13.4-16.4 2.9-8.4 2.2-16.4-1.9-24-3.6-6.5-8.9-11-16-13.4-8.1-2.8-15.9-2-23.4 2.4-6.4 3.6-10.9 9.1-13.4 16.3zM817.3 1876.1l17.7-91.7 17 3.3 31.6 63.8 10.7-55.7 20.3 3.9-17.7 91.7-17-3.3-31.6-63.8-10.7 55.7-20.3-3.9zM987 1878.5l-35.3-2.2-8.4 20.1-21.8-1.4 40.7-91 23.8 1.5 28.9 95.4-21.9-1.4-6-21zm-5.5-19.6-9.1-32.1-12.9 30.8 22 1.3zM1033.4 1806.5l20.7-.8 2.9 74.1 32.9-1.3.8 19.2-53.6 2.1-3.7-93.3zM1221.1 1844l7.7 31.6-20.1 4.9-22.2-90.7 22.3-5.5c8.4-2.1 15.4-2.3 20.9-.8 5.4 1.6 9.9 4.5 13.5 8.8 3.2 3.7 5.4 8.1 6.7 13.2 1.4 5.8 1.3 11.4-.4 16.8-1.5 4.8-4 8.9-7.4 12.2-4.1 3.9-10.4 6.9-18.9 8.9l-2.1.6zm-4.6-18.3 3.4-.8c4.7-1.2 7.9-2.9 9.6-5.1 1.7-2.3 2-5.4 1-9.3-1-4-2.7-6.6-5.2-7.8-2.5-1.2-6.1-1.2-10.8-.1l-3.4.8 5.4 22.3zM1268.6 1817.9c-3.1-8.2-3.8-16.7-2.2-25.5 1.5-8.5 5-16.1 10.6-22.8 5.7-6.9 12.7-11.9 21-15 8.4-3.1 17-4 25.8-2.5 8.6 1.5 16.3 4.9 23 10.2 7 5.6 12 12.4 15.1 20.7 3.1 8.2 3.8 16.7 2.2 25.5-1.6 8.5-5.1 16.1-10.6 22.8-5.7 6.9-12.7 11.9-21.1 15.1-8.3 3.1-16.9 3.9-25.7 2.5-8.6-1.5-16.3-4.9-23-10.2-7-5.7-12.1-12.5-15.1-20.8zm19.5-7.3c3.1 8.2 8.6 14 16.6 17.2 7 2.9 13.9 3 20.8.4 8-3 13.6-8.6 16.7-16.7 2.6-7.1 2.6-14.1 0-21.2-3.1-8.3-8.7-14.1-16.7-17.4-6.9-2.8-13.9-2.9-20.9-.2-8 3-13.6 8.6-16.6 16.7-2.6 7-2.6 14.1.1 21.2zM1361.1 1730.5l18.4-9.5 33.9 66 29.3-15 8.8 17.1-47.7 24.5-42.7-83.1zM1439.7 1686.9l48.6 79.7-17.7 10.8-48.6-79.7 17.7-10.8zM1532.4 1657.8c-6.1-1.3-11.1-1.6-15.1-1s-7.7 2.3-11.3 4.9c-6.9 5.1-10.7 12-11.4 20.5-.5 7.4 1.5 14.2 6.1 20.4 5.2 7 12.2 11 20.8 11.9 7.4.9 14.1-.9 20.1-5.4 3.6-2.7 6.2-5.9 8-9.6 1.7-3.7 2.9-8.7 3.4-15l20 2.2c-1.1 9.4-3.4 17.2-6.8 23.4-3.1 5.4-7.3 10.2-12.8 14.2-7.3 5.4-15.3 8.6-24.2 9.7-8.6 1.1-16.9 0-24.8-3.3-8.2-3.4-15-8.7-20.3-15.8-5.3-7.1-8.4-15.1-9.3-24-.9-8.5.4-16.8 3.8-24.9 3.6-8.1 9-14.9 16.3-20.3 5.8-4.4 12-7.2 18.4-8.4 6.5-1.3 14-1.1 22.7.4l-3.6 20.1zM1579.2 1575.8l13 13.9-25.1 23.4 11.9 12.8 22.3-20.8 13.1 14-22.3 20.8 12.6 13.5 26-24.3 13.1 14-41 38.3-63.8-68.2 40.2-37.4zM1739.4 1492.8l-20.1 29.2 12.9 17.5-12.4 18-57.2-81.6 13.5-19.6 96.7 24.1-12.4 18.1-21-5.7zm-19.6-5.3-32.2-8.7 19.8 26.8 12.4-18.1zM1757.2 1397l21.1-41.4 8.7 4.5c8.8 4.5 15.4 10.1 19.7 16.8 4.3 6.7 6.5 14.1 6.4 22.3-.1 7.1-1.9 14.1-5.4 21-4.2 8.1-10 14.7-17.6 19.6-7.3 4.9-15.2 7.6-23.8 8.1-8.8.6-17.2-1.1-25.2-5.2s-14.3-9.9-18.9-17.4c-4.7-7.3-7.2-15.3-7.6-24-.3-9 1.6-17.5 5.7-25.7 3.3-6.4 7.4-11.6 12.5-15.6 5-4 11.8-7.6 20.3-10.7l5.6 19.5c-5.9 1.9-10.4 4-13.5 6.3s-5.7 5.4-7.7 9.4c-4 7.9-4.5 15.8-1.5 23.8 2.7 7 7.6 12.2 14.6 15.8 8 4.1 16 4.6 24 1.6 7-2.7 12.3-7.4 15.8-14.3 2.8-5.6 3.7-10.9 2.5-16-1.1-4.4-3.6-8.5-7.7-12.1l-11.3 22.2-16.7-8.5zM1767.8 1268.7l17.9 6.6-11.9 32.2 16.4 6.1 10.6-28.6 18 6.7-10.6 28.6 17.3 6.4 12.4-33.3 18 6.7-19.5 52.6-87.5-32.5 18.9-51.5zM1865 1272.1l-90.7-22.2 4.1-16.9 65.3-28.4-55.1-13.5 4.9-20.1 90.7 22.2-4.1 16.9-65.3 28.4 55.1 13.5-4.9 20.1zM1834.3 1084.5c-5.1 3.6-8.8 7-11 10.3s-3.6 7.2-4.1 11.7c-.9 8.5 1.5 16 7.3 22.3 5 5.4 11.4 8.6 19.1 9.4 8.7 1 16.3-1.4 22.9-7.1 5.7-4.8 9-10.9 9.8-18.4.5-4.5 0-8.6-1.6-12.4s-4.4-8-8.6-12.7l15.2-13.1c6.2 7.2 10.3 14.2 12.5 21 1.9 5.9 2.5 12.3 1.7 19.1-1 9-4.1 17.1-9.4 24.3-5.1 7-11.5 12.3-19.4 15.9-8.1 3.7-16.6 5.1-25.4 4.1s-16.8-4.1-23.9-9.5c-6.8-5.2-12-11.7-15.6-19.7-3.5-8.2-4.8-16.8-3.8-25.8.8-7.2 2.9-13.6 6.4-19.2s8.7-11 15.8-16.4l12.1 16.2zM1861.3 1028.7l-54.4 32.2-.4-23.2 33.2-19-33.8-18.1-.4-23.1 55.4 30.5 38.5-.6.3 20.7-38.4.6z" class="st7"/><path d="M443.3 668.1h0" class="st8"/><path d="M463.2 637.5C589.8 453.9 799.5 342.9 1024 342.9c230.6 0 445.7 117.1 571 309.8" style="fill:none;stroke:#a4681d;stroke-width:20;stroke-linecap:round;stroke-miterlimit:10;stroke-dasharray:0,36.5979"/><path d="M1604.7 668.1h0M1704.9 1006.2h0" class="st8"/><path d="M1704.9 1042.4c-9.9 365.3-313.4 662.7-680.9 662.7-373.6 0-681-307.4-681.1-681" style="fill:none;stroke:#a4681d;stroke-width:20;stroke-linecap:round;stroke-miterlimit:10;stroke-dasharray:0,36.2249"/><path d="M343.1 1006.2h0" class="st8"/><path d="m1562.7 391.1 15.8-6.9s-14.5-21.1-5.1-44.8l21.2 17.5 11.1-13.4-22.9-18.9 7.4-8.9-17.3-14.3-7.4 8.9-22.9-19-11.1 13.5 21.1 17.5c-21.6 13.6-44.9 3.2-44.9 3.2l-4.1 17.5c18.8 7.4 33.5 7.8 46.3 3.7-1.6 12.7 1.2 26.5 10.7 42.5-.6-.5-1.2-1.1-1.8-1.6-21.5-17.8-48.2-15.7-62.9 2-14.7 17.7-11.8 44.3 9.7 62.1 21.4 17.8 48.1 15.7 62.8-2 13.7-16.6 12.1-40.9-5.7-58.6zm-45.1 46.1c-11.9-9.9-12.4-23.6-4.4-33.3 8.1-9.7 21.7-11.8 33.6-1.8 11.9 9.9 12.5 23.6 4.4 33.3-8.2 9.6-21.6 11.7-33.6 1.8z" class="st7"/><path d="m1623.4 352.7-16.1 19.5-14.9-12.2-11.5 13.9 14.8 12.3-18.5 22.2 16.7 13.9 46.3-55.7zM1077.8 122.2h-21.7V191l21.8-.1-.1-28.9h18.2l-.1-18.1h-18.1zM1077.9 240.5l-.1-43.2H976.4v18.1l79.7-.1v7.8l-79.7.1v33.1c0 6.1 4.9 10.9 10.9 10.9h92v-18.1l-81.2.1v-8.5l79.8-.2zM1000.7 164.4c7.2 11.3 18.8 20.5 38 26.8l8-16.1s-24.6-7-32.5-31.2h27.5v-17.4H1012v-11.6l-22.5.1v11.6h-29.7V144h27.5c-7.9 24.3-32.5 31.2-32.5 31.2l8.1 16.1c19-6.4 30.7-15.5 37.8-26.9zM489.1 318.7l-16.5 14 11.3 13.3 16.5-14.1 7.6 8.8-16.6 14.1 11.3 13.2 16.5-14.1 9.4 11 16.6-14.1-47.1-55.1-16.5 14.1zM504.9 379.5c-21.2 18.1-23.7 44.8-8.8 62.3 14.9 17.5 41.6 19.2 62.8 1.2 21.2-18.1 23.7-44.8 8.8-62.3-14.9-17.6-41.6-19.3-62.8-1.2zm41.8 49.1c-11.8 10-25.4 8.2-33.6-1.4-8.2-9.6-7.9-23.3 3.9-33.4 11.8-10 25.4-8.2 33.5 1.3 8.3 9.7 8 23.4-3.8 33.5zM466.6 335.7c-2.9-3.4-8-3.8-11.5-.9l-47.3 40.3 11.8 13.8 34.4-29.3c4.2 8.1 11.1 30-13.1 61.2l14.8 9.6c36.2-44.4 24.2-79.1 10.9-94.7z" class="st7"/></svg>