<svg xmlns="http://www.w3.org/2000/svg" xml:space="preserve" width="531.47931" height="500" viewBox="0 0 531.47929 500"><path d="M526.065 554.024V439.477h23.526v122.95c-6.028-3.963-14.19-6.928-23.526-8.403z" style="fill:#15a3b4;fill-opacity:1;fill-rule:nonzero;stroke:none" transform="matrix(2.08856 0 0 -2.08856 -710.826 1190.367)"/><path d="M512.71 552.989c-7.799 0-15.154 1.02-21.656 2.816V439.477h23.528V553.02a74.765 74.765 0 0 0-1.872-.031z" style="fill:#1d7c9e;fill-opacity:1;fill-rule:nonzero;stroke:none" transform="matrix(2.08856 0 0 -2.08856 -710.826 1190.367)"/><path d="M386.022 562.522V439.477h23.525v114.57c-9.348 1.49-17.514 4.486-23.525 8.475z" style="fill:#15a3b4;fill-opacity:1;fill-rule:nonzero;stroke:none" transform="matrix(2.08856 0 0 -2.08856 -710.826 1190.367)"/><path d="M467.861 569.946c-2.538-3.737-6.609-7.069-11.816-9.766V439.438l11.691-4.845 11.83 4.884v120.772c-5.142 2.686-9.185 5.991-11.705 9.697z" style="fill:#1e4a71;fill-opacity:1;fill-rule:nonzero;stroke:none" transform="matrix(2.08856 0 0 -2.08856 -710.826 1190.367)"/><path d="M423.042 552.989c-.673 0-1.346.015-2.01.03V439.478h23.526V555.77c-6.47-1.768-13.774-2.781-21.516-2.781z" style="fill:#1d7c9e;fill-opacity:1;fill-rule:nonzero;stroke:none" transform="matrix(2.08856 0 0 -2.08856 -710.826 1190.367)"/><path d="M462.135 402.981h-6.783v-7.423h-13.858v7.497h-21.86v-6.794h15.065l.016-14.979h-11.846v-20.645h41.817v20.645h-2.551v21.7m-20.64-14.215h13.857v-7.485h-13.858v7.485m-11.838-21.34v7.08h28.245v-7.08zM477.856 367.197v2.85h35.279v14.823h-2.755v4.99h5.32v6.79h-5.32v6.24h-6.787v-18.02h-7.13l3.127 5.192-9.049 5.174h8.26v6.795h-11.18v4.4h-6.795v-4.4H470.32v-6.795h7.78l-8.85-5.296 3.618-5.758 11.39 7.175 10.76-6.487h-19.96v-6.043h30.537v-2.822H470.32V360.59h45.591v6.607zM340.343 330.813v16.046h6.043c2.846 0 4.267-1.6 4.267-4.8 0-3.141-1.489-4.711-4.466-4.711h-2.49v-6.536h-3.354m3.354 13.58v-4.579h1.866c.49 0 .896.23 1.222.69.313.414.468.904.468 1.467 0 1.615-.621 2.423-1.866 2.423zM358.188 337.458v-6.646h-3.358v16.047h6.202c1.171 0 2.09-.364 2.755-1.094.668-.73 1.002-1.773 1.002-3.128 0-2.31-.993-3.63-2.978-3.955 1.942-.238 2.912-1.29 2.912-3.158 0-2.607.125-4.178.377-4.712h-3.29c-.192.416-.302.926-.332 1.535-.015.118-.023.644-.023 1.577 0 1.29-.074 2.119-.222 2.49-.312.696-1.036 1.044-2.178 1.044h-.868m0 6.935v-4.468h1.489c.608 0 1.06.267 1.356.8.237.415.357.935.357 1.556 0 1.407-.573 2.112-1.713 2.112zM374.857 330.547c-2.459 0-4.075.858-4.843 2.578-.461 1.021-.69 2.926-.69 5.71 0 2.802.229 4.714.69 5.735.768 1.703 2.384 2.557 4.843 2.557 2.461 0 4.075-.854 4.846-2.557.458-1.021.688-2.933.688-5.734 0-2.785-.23-4.69-.688-5.711-.771-1.72-2.385-2.578-4.846-2.578m0 2.4c.891 0 1.482.466 1.779 1.399.237.772.354 2.267.354 4.49 0 2.223-.117 3.72-.354 4.49-.297.933-.888 1.4-1.779 1.4-.888 0-1.481-.467-1.779-1.4-.236-.77-.355-2.267-.355-4.49 0-2.223.119-3.718.355-4.49.298-.933.89-1.399 1.78-1.399zM395.238 335.191c0-1.853-.615-3.149-1.844-3.89-.86-.502-2.113-.754-3.755-.754-3.187 0-4.78 1.512-4.78 4.534 0 .222.008.45.02.688h3.358c0-.963.091-1.623.267-1.978.267-.562.814-.844 1.644-.844 1.125 0 1.69.606 1.69 1.823 0 .77-.585 1.525-1.756 2.266-2.104 1.318-3.186 2.008-3.245 2.068-1.171.977-1.756 2.147-1.756 3.51 0 3.008 1.764 4.513 5.291 4.513 3.318 0 4.874-1.608 4.667-4.823h-3.268c0 1.615-.518 2.422-1.556 2.422-1.155 0-1.734-.57-1.734-1.711 0-.816.585-1.57 1.756-2.266 2.09-1.246 3.171-1.898 3.245-1.957 1.171-.964 1.756-2.163 1.756-3.6zM408.796 330.813h-8.936v16.046h8.758v-2.466h-5.4v-3.956h4.977v-2.467h-4.977v-4.69h5.578zM418.577 330.547c-2.46 0-4.077.858-4.848 2.578-.458 1.021-.688 2.926-.688 5.71 0 2.802.23 4.714.688 5.735.771 1.703 2.387 2.557 4.848 2.557 3.242 0 4.798-1.78 4.665-5.334h-3.29c0 1.067-.102 1.821-.308 2.267-.21.444-.565.666-1.067.666-.89 0-1.483-.467-1.78-1.4-.237-.77-.356-2.267-.356-4.49 0-2.223.119-3.718.357-4.49.296-.933.889-1.399 1.78-1.399.663 0 1.109.385 1.33 1.156.09.34.155 1.044.201 2.112h3.312c0-2.075-.413-3.558-1.245-4.446-.756-.815-1.955-1.222-3.599-1.222zM435.266 346.86h3.357V335.48c0-1.378-.393-2.498-1.179-3.356-.964-1.053-2.384-1.578-4.267-1.578-1.808 0-3.177.444-4.112 1.333-.903.845-1.356 2.044-1.356 3.601v11.378h3.357v-11.157c0-1.838.688-2.755 2.067-2.755 1.423 0 2.133.917 2.133 2.755zM442.313 346.86h10.824v-2.668H449.4v-13.38h-3.354v13.38h-3.734zM460.271 330.813h-3.357v16.046h3.357zM470.693 330.547c-2.459 0-4.074.858-4.843 2.578-.46 1.021-.69 2.926-.69 5.71 0 2.802.23 4.714.69 5.735.77 1.703 2.384 2.557 4.843 2.557 2.461 0 4.076-.854 4.846-2.557.46-1.021.688-2.933.688-5.734 0-2.785-.229-4.69-.688-5.711-.77-1.72-2.385-2.578-4.846-2.578m0 2.4c.891 0 1.482.466 1.78 1.399.236.772.354 2.267.354 4.49 0 2.223-.118 3.72-.354 4.49-.298.933-.889 1.4-1.78 1.4-.887 0-1.483-.467-1.776-1.4-.24-.77-.356-2.267-.356-4.49 0-2.223.117-3.718.356-4.49.293-.933.889-1.399 1.776-1.399zM484.252 330.813h-3.113v16.046h4.558l4.288-11.112v11.112h3.11v-16.046h-4.443l-4.4 11.735zM515.78 335.191c0-1.853-.617-3.149-1.844-3.89-.86-.502-2.113-.754-3.756-.754-3.187 0-4.78 1.512-4.78 4.534 0 .222.007.45.023.688h3.356c0-.963.087-1.623.266-1.978.266-.562.816-.844 1.645-.844 1.126 0 1.689.606 1.689 1.823 0 .77-.586 1.525-1.757 2.266-2.104 1.318-3.186 2.008-3.244 2.068-1.171.977-1.755 2.147-1.755 3.51 0 3.008 1.762 4.513 5.29 4.513 3.318 0 4.873-1.608 4.667-4.823h-3.268c0 1.615-.52 2.422-1.555 2.422-1.157 0-1.734-.57-1.734-1.711 0-.816.584-1.57 1.755-2.266 2.09-1.246 3.171-1.898 3.244-1.957 1.171-.964 1.757-2.163 1.757-3.6zM529.337 330.813h-8.934v16.046h8.755v-2.466h-5.4v-3.956h4.978v-2.467h-4.978v-4.69h5.579zM537.027 337.458v-6.646h-3.356v16.047h6.2c1.171 0 2.09-.364 2.758-1.094.665-.73 1-1.773 1-3.128 0-2.31-.992-3.63-2.98-3.955 1.943-.238 2.913-1.29 2.913-3.158 0-2.607.126-4.178.376-4.712h-3.289c-.191.416-.302.926-.333 1.535-.015.118-.021.644-.021 1.577 0 1.29-.075 2.119-.223 2.49-.312.696-1.036 1.044-2.178 1.044h-.867m0 6.935v-4.468h1.49c.606 0 1.056.267 1.354.8.238.415.358.935.358 1.556 0 1.407-.572 2.112-1.712 2.112zM550.985 330.813l-3.957 16.046h3.49l2.489-11.668h.045l2.8 11.668h3.311l-4.245-16.046h-3.933zM566.256 330.813h-3.358v16.046h3.358zM576.678 330.547c-2.46 0-4.074.858-4.846 2.578-.46 1.021-.69 2.926-.69 5.71 0 2.802.23 4.714.69 5.735.772 1.703 2.386 2.557 4.846 2.557 3.245 0 4.799-1.78 4.666-5.334h-3.29c0 1.067-.1 1.821-.31 2.267-.208.444-.564.666-1.066.666-.888 0-1.483-.467-1.777-1.4-.239-.77-.358-2.267-.358-4.49 0-2.223.12-3.718.358-4.49.294-.933.889-1.399 1.777-1.399.665 0 1.11.385 1.332 1.156.09.34.157 1.044.2 2.112h3.311c0-2.075-.412-3.558-1.244-4.446-.756-.815-1.955-1.222-3.6-1.222zM594.814 330.813h-8.935v16.046h8.758v-2.466h-5.402v-3.956h4.977v-2.467h-4.977v-4.69h5.58z" style="fill:#231f20;fill-opacity:1;fill-rule:nonzero;stroke:none" transform="matrix(2.08856 0 0 -2.08856 -710.826 1190.367)"/></svg>